%TF.GenerationSoftware,KiCad,Pcbnew,10.0.0*%
%TF.CreationDate,2026-04-12T03:07:14-03:00*%
%TF.ProjectId,PULSAR,50554c53-4152-42e6-9b69-6361645f7063,rev?*%
%TF.SameCoordinates,Original*%
%TF.FileFunction,Legend,Top*%
%TF.FilePolarity,Positive*%
%FSLAX46Y46*%
G04 Gerber Fmt 4.6, Leading zero omitted, Abs format (unit mm)*
G04 Created by KiCad (PCBNEW 10.0.0) date 2026-04-12 03:07:14*
%MOMM*%
%LPD*%
G01*
G04 APERTURE LIST*
%ADD10C,0.150000*%
%ADD11C,0.120000*%
G04 APERTURE END LIST*
D10*
X132008095Y-43394819D02*
X132008095Y-44204342D01*
X132008095Y-44204342D02*
X132055714Y-44299580D01*
X132055714Y-44299580D02*
X132103333Y-44347200D01*
X132103333Y-44347200D02*
X132198571Y-44394819D01*
X132198571Y-44394819D02*
X132389047Y-44394819D01*
X132389047Y-44394819D02*
X132484285Y-44347200D01*
X132484285Y-44347200D02*
X132531904Y-44299580D01*
X132531904Y-44299580D02*
X132579523Y-44204342D01*
X132579523Y-44204342D02*
X132579523Y-43394819D01*
X133008095Y-43490057D02*
X133055714Y-43442438D01*
X133055714Y-43442438D02*
X133150952Y-43394819D01*
X133150952Y-43394819D02*
X133389047Y-43394819D01*
X133389047Y-43394819D02*
X133484285Y-43442438D01*
X133484285Y-43442438D02*
X133531904Y-43490057D01*
X133531904Y-43490057D02*
X133579523Y-43585295D01*
X133579523Y-43585295D02*
X133579523Y-43680533D01*
X133579523Y-43680533D02*
X133531904Y-43823390D01*
X133531904Y-43823390D02*
X132960476Y-44394819D01*
X132960476Y-44394819D02*
X133579523Y-44394819D01*
X118333333Y-35179580D02*
X118285714Y-35227200D01*
X118285714Y-35227200D02*
X118142857Y-35274819D01*
X118142857Y-35274819D02*
X118047619Y-35274819D01*
X118047619Y-35274819D02*
X117904762Y-35227200D01*
X117904762Y-35227200D02*
X117809524Y-35131961D01*
X117809524Y-35131961D02*
X117761905Y-35036723D01*
X117761905Y-35036723D02*
X117714286Y-34846247D01*
X117714286Y-34846247D02*
X117714286Y-34703390D01*
X117714286Y-34703390D02*
X117761905Y-34512914D01*
X117761905Y-34512914D02*
X117809524Y-34417676D01*
X117809524Y-34417676D02*
X117904762Y-34322438D01*
X117904762Y-34322438D02*
X118047619Y-34274819D01*
X118047619Y-34274819D02*
X118142857Y-34274819D01*
X118142857Y-34274819D02*
X118285714Y-34322438D01*
X118285714Y-34322438D02*
X118333333Y-34370057D01*
X119285714Y-35274819D02*
X118714286Y-35274819D01*
X119000000Y-35274819D02*
X119000000Y-34274819D01*
X119000000Y-34274819D02*
X118904762Y-34417676D01*
X118904762Y-34417676D02*
X118809524Y-34512914D01*
X118809524Y-34512914D02*
X118714286Y-34560533D01*
X122238095Y-43304819D02*
X122238095Y-44114342D01*
X122238095Y-44114342D02*
X122285714Y-44209580D01*
X122285714Y-44209580D02*
X122333333Y-44257200D01*
X122333333Y-44257200D02*
X122428571Y-44304819D01*
X122428571Y-44304819D02*
X122619047Y-44304819D01*
X122619047Y-44304819D02*
X122714285Y-44257200D01*
X122714285Y-44257200D02*
X122761904Y-44209580D01*
X122761904Y-44209580D02*
X122809523Y-44114342D01*
X122809523Y-44114342D02*
X122809523Y-43304819D01*
X123190476Y-43304819D02*
X123809523Y-43304819D01*
X123809523Y-43304819D02*
X123476190Y-43685771D01*
X123476190Y-43685771D02*
X123619047Y-43685771D01*
X123619047Y-43685771D02*
X123714285Y-43733390D01*
X123714285Y-43733390D02*
X123761904Y-43781009D01*
X123761904Y-43781009D02*
X123809523Y-43876247D01*
X123809523Y-43876247D02*
X123809523Y-44114342D01*
X123809523Y-44114342D02*
X123761904Y-44209580D01*
X123761904Y-44209580D02*
X123714285Y-44257200D01*
X123714285Y-44257200D02*
X123619047Y-44304819D01*
X123619047Y-44304819D02*
X123333333Y-44304819D01*
X123333333Y-44304819D02*
X123238095Y-44257200D01*
X123238095Y-44257200D02*
X123190476Y-44209580D01*
X126875595Y-34104819D02*
X126875595Y-34914342D01*
X126875595Y-34914342D02*
X126923214Y-35009580D01*
X126923214Y-35009580D02*
X126970833Y-35057200D01*
X126970833Y-35057200D02*
X127066071Y-35104819D01*
X127066071Y-35104819D02*
X127256547Y-35104819D01*
X127256547Y-35104819D02*
X127351785Y-35057200D01*
X127351785Y-35057200D02*
X127399404Y-35009580D01*
X127399404Y-35009580D02*
X127447023Y-34914342D01*
X127447023Y-34914342D02*
X127447023Y-34104819D01*
X128447023Y-35104819D02*
X127875595Y-35104819D01*
X128161309Y-35104819D02*
X128161309Y-34104819D01*
X128161309Y-34104819D02*
X128066071Y-34247676D01*
X128066071Y-34247676D02*
X127970833Y-34342914D01*
X127970833Y-34342914D02*
X127875595Y-34390533D01*
X132666666Y-52494819D02*
X132666666Y-53209104D01*
X132666666Y-53209104D02*
X132619047Y-53351961D01*
X132619047Y-53351961D02*
X132523809Y-53447200D01*
X132523809Y-53447200D02*
X132380952Y-53494819D01*
X132380952Y-53494819D02*
X132285714Y-53494819D01*
X133095238Y-52590057D02*
X133142857Y-52542438D01*
X133142857Y-52542438D02*
X133238095Y-52494819D01*
X133238095Y-52494819D02*
X133476190Y-52494819D01*
X133476190Y-52494819D02*
X133571428Y-52542438D01*
X133571428Y-52542438D02*
X133619047Y-52590057D01*
X133619047Y-52590057D02*
X133666666Y-52685295D01*
X133666666Y-52685295D02*
X133666666Y-52780533D01*
X133666666Y-52780533D02*
X133619047Y-52923390D01*
X133619047Y-52923390D02*
X133047619Y-53494819D01*
X133047619Y-53494819D02*
X133666666Y-53494819D01*
X137283333Y-34679580D02*
X137235714Y-34727200D01*
X137235714Y-34727200D02*
X137092857Y-34774819D01*
X137092857Y-34774819D02*
X136997619Y-34774819D01*
X136997619Y-34774819D02*
X136854762Y-34727200D01*
X136854762Y-34727200D02*
X136759524Y-34631961D01*
X136759524Y-34631961D02*
X136711905Y-34536723D01*
X136711905Y-34536723D02*
X136664286Y-34346247D01*
X136664286Y-34346247D02*
X136664286Y-34203390D01*
X136664286Y-34203390D02*
X136711905Y-34012914D01*
X136711905Y-34012914D02*
X136759524Y-33917676D01*
X136759524Y-33917676D02*
X136854762Y-33822438D01*
X136854762Y-33822438D02*
X136997619Y-33774819D01*
X136997619Y-33774819D02*
X137092857Y-33774819D01*
X137092857Y-33774819D02*
X137235714Y-33822438D01*
X137235714Y-33822438D02*
X137283333Y-33870057D01*
X137664286Y-33870057D02*
X137711905Y-33822438D01*
X137711905Y-33822438D02*
X137807143Y-33774819D01*
X137807143Y-33774819D02*
X138045238Y-33774819D01*
X138045238Y-33774819D02*
X138140476Y-33822438D01*
X138140476Y-33822438D02*
X138188095Y-33870057D01*
X138188095Y-33870057D02*
X138235714Y-33965295D01*
X138235714Y-33965295D02*
X138235714Y-34060533D01*
X138235714Y-34060533D02*
X138188095Y-34203390D01*
X138188095Y-34203390D02*
X137616667Y-34774819D01*
X137616667Y-34774819D02*
X138235714Y-34774819D01*
%TO.C,U2*%
D11*
X130970000Y-49350000D02*
X134570000Y-49350000D01*
X130931522Y-49338478D02*
G75*
G02*
X132770000Y-44899999I1838478J1838478D01*
G01*
X132770000Y-44900000D02*
G75*
G02*
X134608478Y-49338478I0J-2600000D01*
G01*
%TO.C,C1*%
X118238748Y-35765000D02*
X118761252Y-35765000D01*
X118238748Y-37235000D02*
X118761252Y-37235000D01*
%TO.C,U3*%
X119140000Y-44690000D02*
X126860000Y-44690000D01*
X119140000Y-44955000D02*
X119140000Y-44690000D01*
X119140000Y-60310000D02*
X119140000Y-60045000D01*
X126860000Y-44690000D02*
X126860000Y-44955000D01*
X126860000Y-60045000D02*
X126860000Y-60310000D01*
X126860000Y-60310000D02*
X119140000Y-60310000D01*
X118350000Y-44950000D02*
X118010000Y-44480000D01*
X118690000Y-44480000D01*
X118350000Y-44950000D01*
G36*
X118350000Y-44950000D02*
G01*
X118010000Y-44480000D01*
X118690000Y-44480000D01*
X118350000Y-44950000D01*
G37*
%TO.C,J3*%
X116830000Y-26495000D02*
X116830000Y-26995000D01*
X116830000Y-26495000D02*
X117330000Y-26495000D01*
X116980000Y-26645000D02*
X116980000Y-27545000D01*
X116980000Y-26645000D02*
X117780000Y-26645000D01*
X116980000Y-30685000D02*
X116980000Y-29785000D01*
X116980000Y-30685000D02*
X117780000Y-30685000D01*
X125520000Y-26645000D02*
X124720000Y-26645000D01*
X125520000Y-26645000D02*
X125520000Y-27545000D01*
X125520000Y-30685000D02*
X124720000Y-30685000D01*
X125520000Y-30685000D02*
X125520000Y-29785000D01*
%TO.C,U1*%
X126727500Y-35490000D02*
X128547500Y-35490000D01*
X126727500Y-35540000D02*
X126727500Y-35490000D01*
X126727500Y-38610000D02*
X126727500Y-38560000D01*
X128547500Y-35490000D02*
X128547500Y-35540000D01*
X128547500Y-36660000D02*
X128547500Y-37440000D01*
X128547500Y-38560000D02*
X128547500Y-38610000D01*
X128547500Y-38610000D02*
X126727500Y-38610000D01*
X126187500Y-35540000D02*
X125947500Y-35210000D01*
X126427500Y-35210000D01*
X126187500Y-35540000D01*
G36*
X126187500Y-35540000D02*
G01*
X125947500Y-35210000D01*
X126427500Y-35210000D01*
X126187500Y-35540000D01*
G37*
%TO.C,J2*%
X131620000Y-54040000D02*
X133000000Y-54040000D01*
X131620000Y-55420000D02*
X131620000Y-54040000D01*
X131620000Y-56690000D02*
X131620000Y-64420000D01*
X131620000Y-56690000D02*
X134380000Y-56690000D01*
X131620000Y-64420000D02*
X134380000Y-64420000D01*
X134380000Y-56690000D02*
X134380000Y-64420000D01*
%TO.C,U4*%
X121190000Y-65040000D02*
X125810000Y-65040000D01*
X121190000Y-65090000D02*
X121190000Y-65040000D01*
X121190000Y-74960000D02*
X121190000Y-74910000D01*
X125810000Y-65040000D02*
X125810000Y-65090000D01*
X125810000Y-74910000D02*
X125810000Y-74960000D01*
X125810000Y-74960000D02*
X121190000Y-74960000D01*
X120630000Y-65090000D02*
X120390000Y-64760000D01*
X120870000Y-64760000D01*
X120630000Y-65090000D01*
G36*
X120630000Y-65090000D02*
G01*
X120390000Y-64760000D01*
X120870000Y-64760000D01*
X120630000Y-65090000D01*
G37*
%TO.C,J1*%
X109620000Y-25920000D02*
X111000000Y-25920000D01*
X109620000Y-27300000D02*
X109620000Y-25920000D01*
X109620000Y-28570000D02*
X109620000Y-76940000D01*
X109620000Y-28570000D02*
X112380000Y-28570000D01*
X109620000Y-76940000D02*
X112380000Y-76940000D01*
X112380000Y-28570000D02*
X112380000Y-76940000D01*
%TO.C,C2*%
X137188748Y-35265000D02*
X137711252Y-35265000D01*
X137188748Y-36735000D02*
X137711252Y-36735000D01*
%TD*%
M02*
