%TF.GenerationSoftware,KiCad,Pcbnew,10.0.0*%
%TF.CreationDate,2026-04-12T03:07:14-03:00*%
%TF.ProjectId,PULSAR,50554c53-4152-42e6-9b69-6361645f7063,rev?*%
%TF.SameCoordinates,Original*%
%TF.FileFunction,Copper,L1,Top*%
%TF.FilePolarity,Positive*%
%FSLAX46Y46*%
G04 Gerber Fmt 4.6, Leading zero omitted, Abs format (unit mm)*
G04 Created by KiCad (PCBNEW 10.0.0) date 2026-04-12 03:07:14*
%MOMM*%
%LPD*%
G01*
G04 APERTURE LIST*
G04 Aperture macros list*
%AMRoundRect*
0 Rectangle with rounded corners*
0 $1 Rounding radius*
0 $2 $3 $4 $5 $6 $7 $8 $9 X,Y pos of 4 corners*
0 Add a 4 corners polygon primitive as box body*
4,1,4,$2,$3,$4,$5,$6,$7,$8,$9,$2,$3,0*
0 Add four circle primitives for the rounded corners*
1,1,$1+$1,$2,$3*
1,1,$1+$1,$4,$5*
1,1,$1+$1,$6,$7*
1,1,$1+$1,$8,$9*
0 Add four rect primitives between the rounded corners*
20,1,$1+$1,$2,$3,$4,$5,0*
20,1,$1+$1,$4,$5,$6,$7,0*
20,1,$1+$1,$6,$7,$8,$9,0*
20,1,$1+$1,$8,$9,$2,$3,0*%
G04 Aperture macros list end*
%TA.AperFunction,ComponentPad*%
%ADD10R,1.050000X1.500000*%
%TD*%
%TA.AperFunction,ComponentPad*%
%ADD11O,1.050000X1.500000*%
%TD*%
%TA.AperFunction,SMDPad,CuDef*%
%ADD12RoundRect,0.250000X-0.250000X-0.475000X0.250000X-0.475000X0.250000X0.475000X-0.250000X0.475000X0*%
%TD*%
%TA.AperFunction,SMDPad,CuDef*%
%ADD13RoundRect,0.150000X-0.875000X-0.150000X0.875000X-0.150000X0.875000X0.150000X-0.875000X0.150000X0*%
%TD*%
%TA.AperFunction,SMDPad,CuDef*%
%ADD14R,0.300000X0.850000*%
%TD*%
%TA.AperFunction,ComponentPad*%
%ADD15C,1.100000*%
%TD*%
%TA.AperFunction,SMDPad,CuDef*%
%ADD16RoundRect,0.150000X-0.512500X-0.150000X0.512500X-0.150000X0.512500X0.150000X-0.512500X0.150000X0*%
%TD*%
%TA.AperFunction,ComponentPad*%
%ADD17R,1.700000X1.700000*%
%TD*%
%TA.AperFunction,ComponentPad*%
%ADD18C,1.700000*%
%TD*%
%TA.AperFunction,SMDPad,CuDef*%
%ADD19RoundRect,0.075000X-0.662500X-0.075000X0.662500X-0.075000X0.662500X0.075000X-0.662500X0.075000X0*%
%TD*%
%TA.AperFunction,ViaPad*%
%ADD20C,0.600000*%
%TD*%
%TA.AperFunction,Conductor*%
%ADD21C,0.200000*%
%TD*%
G04 APERTURE END LIST*
D10*
%TO.P,U2,1,Pin_1_1*%
%TO.N,+3.3V*%
X131500000Y-47500000D03*
D11*
%TO.P,U2,2,Pin_2_2*%
%TO.N,GND*%
X132770000Y-47500000D03*
%TO.P,U2,3,Pin_3_3*%
%TO.N,/HALL_OUT_1*%
X134040000Y-47500000D03*
%TD*%
D12*
%TO.P,C1,1*%
%TO.N,+5V*%
X117550000Y-36500000D03*
%TO.P,C1,2*%
%TO.N,GND*%
X119450000Y-36500000D03*
%TD*%
D13*
%TO.P,U3,1,COM_1*%
%TO.N,/MUX_OUT*%
X118350000Y-45515000D03*
%TO.P,U3,2,I7_2*%
%TO.N,unconnected-(U3-I7-Pad2)*%
X118350000Y-46785000D03*
%TO.P,U3,3,I6_3*%
%TO.N,unconnected-(U3-I6-Pad3)*%
X118350000Y-48055000D03*
%TO.P,U3,4,I5_4*%
%TO.N,unconnected-(U3-I5-Pad4)*%
X118350000Y-49325000D03*
%TO.P,U3,5,I4_5*%
%TO.N,unconnected-(U3-I4-Pad5)*%
X118350000Y-50595000D03*
%TO.P,U3,6,I3_6*%
%TO.N,unconnected-(U3-I3-Pad6)*%
X118350000Y-51865000D03*
%TO.P,U3,7,I2_7*%
%TO.N,unconnected-(U3-I2-Pad7)*%
X118350000Y-53135000D03*
%TO.P,U3,8,I1_8*%
%TO.N,unconnected-(U3-I1-Pad8)*%
X118350000Y-54405000D03*
%TO.P,U3,9,I0_9*%
%TO.N,/HALL_OUT_1*%
X118350000Y-55675000D03*
%TO.P,U3,10,S0_10*%
%TO.N,/MUX_S0*%
X118350000Y-56945000D03*
%TO.P,U3,11,S1_11*%
%TO.N,/MUX_S1*%
X118350000Y-58215000D03*
%TO.P,U3,12,GND_12*%
%TO.N,GND*%
X118350000Y-59485000D03*
%TO.P,U3,13,S3_13*%
%TO.N,/MUX_S3*%
X127650000Y-59485000D03*
%TO.P,U3,14,S2_14*%
%TO.N,/MUX_S2*%
X127650000Y-58215000D03*
%TO.P,U3,15,~{E}_15*%
%TO.N,GND*%
X127650000Y-56945000D03*
%TO.P,U3,16,I15_16*%
%TO.N,unconnected-(U3-I15-Pad16)*%
X127650000Y-55675000D03*
%TO.P,U3,17,I14_17*%
%TO.N,unconnected-(U3-I14-Pad17)*%
X127650000Y-54405000D03*
%TO.P,U3,18,I13_18*%
%TO.N,unconnected-(U3-I13-Pad18)*%
X127650000Y-53135000D03*
%TO.P,U3,19,I12_19*%
%TO.N,unconnected-(U3-I12-Pad19)*%
X127650000Y-51865000D03*
%TO.P,U3,20,I11_20*%
%TO.N,unconnected-(U3-I11-Pad20)*%
X127650000Y-50595000D03*
%TO.P,U3,21,I10_21*%
%TO.N,unconnected-(U3-I10-Pad21)*%
X127650000Y-49325000D03*
%TO.P,U3,22,I9_22*%
%TO.N,unconnected-(U3-I9-Pad22)*%
X127650000Y-48055000D03*
%TO.P,U3,23,I8_23*%
%TO.N,unconnected-(U3-I8-Pad23)*%
X127650000Y-46785000D03*
%TO.P,U3,24,VCC_24*%
%TO.N,+3.3V*%
X127650000Y-45515000D03*
%TD*%
D14*
%TO.P,J3,A1,GND_A1*%
%TO.N,GND*%
X118500000Y-27830000D03*
%TO.P,J3,A2,TX1+_A2*%
%TO.N,unconnected-(J3-TX1+-PadA2)*%
X119000000Y-27830000D03*
%TO.P,J3,A3,TX1-_A3*%
%TO.N,unconnected-(J3-TX1--PadA3)*%
X119500000Y-27830000D03*
%TO.P,J3,A4,VBUS_A4*%
%TO.N,+5V*%
X120000000Y-27830000D03*
%TO.P,J3,A5,CC1_A5*%
%TO.N,unconnected-(J3-CC1-PadA5)*%
X120500000Y-27830000D03*
%TO.P,J3,A6,D+_A6*%
%TO.N,/USB_DP*%
X121000000Y-27830000D03*
%TO.P,J3,A7,D-_A7*%
%TO.N,/USB_DN*%
X121500000Y-27830000D03*
%TO.P,J3,A8,SBU1_A8*%
%TO.N,unconnected-(J3-SBU1-PadA8)*%
X122000000Y-27830000D03*
%TO.P,J3,A9,VBUS_A9*%
%TO.N,+5V*%
X122500000Y-27830000D03*
%TO.P,J3,A10,RX2-_A10*%
%TO.N,unconnected-(J3-RX2--PadA10)*%
X123000000Y-27830000D03*
%TO.P,J3,A11,RX2+_A11*%
%TO.N,unconnected-(J3-RX2+-PadA11)*%
X123500000Y-27830000D03*
%TO.P,J3,A12,GND_A12*%
%TO.N,GND*%
X124000000Y-27830000D03*
%TO.P,J3,B1,GND_B1*%
X124000000Y-29500000D03*
%TO.P,J3,B2,TX2+_B2*%
%TO.N,unconnected-(J3-TX2+-PadB2)*%
X123500000Y-29500000D03*
%TO.P,J3,B3,TX2-_B3*%
%TO.N,unconnected-(J3-TX2--PadB3)*%
X123000000Y-29500000D03*
%TO.P,J3,B4,VBUS_B4*%
%TO.N,+5V*%
X122500000Y-29500000D03*
%TO.P,J3,B5,CC2_B5*%
%TO.N,unconnected-(J3-CC2-PadB5)*%
X122000000Y-29500000D03*
%TO.P,J3,B6,D+_B6*%
%TO.N,/USB_DP*%
X121500000Y-29500000D03*
%TO.P,J3,B7,D-_B7*%
%TO.N,/USB_DN*%
X121000000Y-29500000D03*
%TO.P,J3,B8,SBU2_B8*%
%TO.N,unconnected-(J3-SBU2-PadB8)*%
X120500000Y-29500000D03*
%TO.P,J3,B9,VBUS_B9*%
%TO.N,+5V*%
X120000000Y-29500000D03*
%TO.P,J3,B10,RX1-_B10*%
%TO.N,unconnected-(J3-RX1--PadB10)*%
X119500000Y-29500000D03*
%TO.P,J3,B11,RX1+_B11*%
%TO.N,unconnected-(J3-RX1+-PadB11)*%
X119000000Y-29500000D03*
%TO.P,J3,B12,GND_B12*%
%TO.N,GND*%
X118500000Y-29500000D03*
D15*
%TO.P,J3,SH,SHIELD_SH*%
%TO.N,unconnected-(J3-SHIELD-PadSH)_1*%
X118850000Y-26515000D03*
%TO.N,unconnected-(J3-SHIELD-PadSH)*%
X118850000Y-30815000D03*
%TO.N,unconnected-(J3-SHIELD-PadSH)_3*%
X123650000Y-26515000D03*
%TO.N,unconnected-(J3-SHIELD-PadSH)_2*%
X123650000Y-30815000D03*
%TD*%
D16*
%TO.P,U1,1,VIN_1*%
%TO.N,+5V*%
X126500000Y-36100000D03*
%TO.P,U1,2,GND_2*%
%TO.N,GND*%
X126500000Y-37050000D03*
%TO.P,U1,3,EN_3*%
%TO.N,+5V*%
X126500000Y-38000000D03*
%TO.P,U1,4,NC_4*%
%TO.N,unconnected-(U1-NC-Pad4)*%
X128775000Y-38000000D03*
%TO.P,U1,5,VOUT_5*%
%TO.N,+3.3V*%
X128775000Y-36100000D03*
%TD*%
D17*
%TO.P,J2,1,Pin_1_1*%
%TO.N,+3.3V*%
X133000000Y-55420000D03*
D18*
%TO.P,J2,2,Pin_2_2*%
%TO.N,GND*%
X133000000Y-57960000D03*
%TO.P,J2,3,Pin_3_3*%
%TO.N,/OLED_SDA*%
X133000000Y-60500000D03*
%TO.P,J2,4,Pin_4_4*%
%TO.N,/OLED_SCL*%
X133000000Y-63040000D03*
%TD*%
D19*
%TO.P,U4,1,SDI_1*%
%TO.N,/SPI_SDI*%
X120637500Y-65500000D03*
%TO.P,U4,2,~{RST/PD}_2*%
%TO.N,+3.3V*%
X120637500Y-66000000D03*
%TO.P,U4,3,DAISY_3*%
%TO.N,unconnected-(U4-DAISY-Pad3)*%
X120637500Y-66500000D03*
%TO.P,U4,4,~{REFSEL}_4*%
%TO.N,+3.3V*%
X120637500Y-67000000D03*
%TO.P,U4,5,REFIO_5*%
%TO.N,GND*%
X120637500Y-67500000D03*
%TO.P,U4,6,REFGND_6*%
X120637500Y-68000000D03*
%TO.P,U4,7,REFCAP_7*%
X120637500Y-68500000D03*
%TO.P,U4,8,AGND_8*%
X120637500Y-69000000D03*
%TO.P,U4,9,AVDD_9*%
%TO.N,+3.3V*%
X120637500Y-69500000D03*
%TO.P,U4,10,AUX_IN_10*%
%TO.N,unconnected-(U4-AUX_IN-Pad10)*%
X120637500Y-70000000D03*
%TO.P,U4,11,AUX_GND_11*%
%TO.N,GND*%
X120637500Y-70500000D03*
%TO.P,U4,12,AIN_6P_12*%
%TO.N,unconnected-(U4-AIN_6P-Pad12)*%
X120637500Y-71000000D03*
%TO.P,U4,13,AIN_6GND_13*%
%TO.N,GND*%
X120637500Y-71500000D03*
%TO.P,U4,14,AIN_7P_14*%
%TO.N,unconnected-(U4-AIN_7P-Pad14)*%
X120637500Y-72000000D03*
%TO.P,U4,15,AIN_7GND_15*%
%TO.N,GND*%
X120637500Y-72500000D03*
%TO.P,U4,16,AIN_0P_16*%
%TO.N,/MUX_OUT*%
X120637500Y-73000000D03*
%TO.P,U4,17,AIN_0GND_17*%
%TO.N,GND*%
X120637500Y-73500000D03*
%TO.P,U4,18,AIN_1P_18*%
%TO.N,unconnected-(U4-AIN_1P-Pad18)*%
X120637500Y-74000000D03*
%TO.P,U4,19,AIN_1GND_19*%
%TO.N,GND*%
X120637500Y-74500000D03*
%TO.P,U4,20,AIN_2GND_20*%
X126362500Y-74500000D03*
%TO.P,U4,21,AIN_2P_21*%
%TO.N,unconnected-(U4-AIN_2P-Pad21)*%
X126362500Y-74000000D03*
%TO.P,U4,22,AIN_3GND_22*%
%TO.N,GND*%
X126362500Y-73500000D03*
%TO.P,U4,23,AIN_3P_23*%
%TO.N,unconnected-(U4-AIN_3P-Pad23)*%
X126362500Y-73000000D03*
%TO.P,U4,24,AIN_4GND_24*%
%TO.N,GND*%
X126362500Y-72500000D03*
%TO.P,U4,25,AIN_4P_25*%
%TO.N,unconnected-(U4-AIN_4P-Pad25)*%
X126362500Y-72000000D03*
%TO.P,U4,26,AIN_5GND_26*%
%TO.N,GND*%
X126362500Y-71500000D03*
%TO.P,U4,27,AIN_5P_27*%
%TO.N,unconnected-(U4-AIN_5P-Pad27)*%
X126362500Y-71000000D03*
%TO.P,U4,28,AGND_28*%
%TO.N,GND*%
X126362500Y-70500000D03*
%TO.P,U4,29,AGND_29*%
X126362500Y-70000000D03*
%TO.P,U4,30,AVDD_30*%
%TO.N,+3.3V*%
X126362500Y-69500000D03*
%TO.P,U4,31,AGND_31*%
%TO.N,GND*%
X126362500Y-69000000D03*
%TO.P,U4,32,AGND_32*%
X126362500Y-68500000D03*
%TO.P,U4,33,DGND_33*%
X126362500Y-68000000D03*
%TO.P,U4,34,DVDD_34*%
%TO.N,+3.3V*%
X126362500Y-67500000D03*
%TO.P,U4,35,DNC_35*%
%TO.N,unconnected-(U4-DNC-Pad35)*%
X126362500Y-67000000D03*
%TO.P,U4,36,SDO_36*%
%TO.N,/SPI_SDO*%
X126362500Y-66500000D03*
%TO.P,U4,37,SCLK_37*%
%TO.N,/SPI_SCLK*%
X126362500Y-66000000D03*
%TO.P,U4,38,~{CS}_38*%
%TO.N,/SPI_CS1*%
X126362500Y-65500000D03*
%TD*%
D17*
%TO.P,J1,1,Pin_1_1*%
%TO.N,+3.3V*%
X111000000Y-27300000D03*
D18*
%TO.P,J1,2,Pin_2_2*%
%TO.N,GND*%
X111000000Y-29840000D03*
%TO.P,J1,3,Pin_3_3*%
%TO.N,/SPI_SDO*%
X111000000Y-32380000D03*
%TO.P,J1,4,Pin_4_4*%
%TO.N,/SPI_SDI*%
X111000000Y-34920000D03*
%TO.P,J1,5,Pin_5_5*%
%TO.N,/SPI_SCLK*%
X111000000Y-37460000D03*
%TO.P,J1,6,Pin_6_6*%
%TO.N,/SPI_CS1*%
X111000000Y-40000000D03*
%TO.P,J1,7,Pin_7_7*%
%TO.N,/MUX_S0*%
X111000000Y-42540000D03*
%TO.P,J1,8,Pin_8_8*%
%TO.N,/MUX_S1*%
X111000000Y-45080000D03*
%TO.P,J1,9,Pin_9_9*%
%TO.N,/MUX_S2*%
X111000000Y-47620000D03*
%TO.P,J1,10,Pin_10_10*%
%TO.N,/MUX_S3*%
X111000000Y-50160000D03*
%TO.P,J1,11,Pin_11_11*%
%TO.N,/MUX_OUT*%
X111000000Y-52700000D03*
%TO.P,J1,12,Pin_12_12*%
%TO.N,unconnected-(J1-Pin_12-Pad12)*%
X111000000Y-55240000D03*
%TO.P,J1,13,Pin_13_13*%
%TO.N,unconnected-(J1-Pin_13-Pad13)*%
X111000000Y-57780000D03*
%TO.P,J1,14,Pin_14_14*%
%TO.N,unconnected-(J1-Pin_14-Pad14)*%
X111000000Y-60320000D03*
%TO.P,J1,15,Pin_15_15*%
%TO.N,unconnected-(J1-Pin_15-Pad15)*%
X111000000Y-62860000D03*
%TO.P,J1,16,Pin_16_16*%
%TO.N,unconnected-(J1-Pin_16-Pad16)*%
X111000000Y-65400000D03*
%TO.P,J1,17,Pin_17_17*%
%TO.N,unconnected-(J1-Pin_17-Pad17)*%
X111000000Y-67940000D03*
%TO.P,J1,18,Pin_18_18*%
%TO.N,unconnected-(J1-Pin_18-Pad18)*%
X111000000Y-70480000D03*
%TO.P,J1,19,Pin_19_19*%
%TO.N,unconnected-(J1-Pin_19-Pad19)*%
X111000000Y-73020000D03*
%TO.P,J1,20,Pin_20_20*%
%TO.N,unconnected-(J1-Pin_20-Pad20)*%
X111000000Y-75560000D03*
%TD*%
D12*
%TO.P,C2,1*%
%TO.N,+3.3V*%
X136500000Y-36000000D03*
%TO.P,C2,2*%
%TO.N,GND*%
X138400000Y-36000000D03*
%TD*%
D20*
%TO.N,GND*%
X122000000Y-70100000D03*
X125000000Y-70100000D03*
X125000000Y-68900000D03*
X121500000Y-61500000D03*
X122000000Y-68900000D03*
X132770000Y-42920040D03*
X129000000Y-57500000D03*
X127050499Y-37200539D03*
%TO.N,/HALL_OUT_1*%
X129500000Y-47500000D03*
X131500000Y-44500000D03*
%TO.N,+5V*%
X121000000Y-33000000D03*
X124500000Y-38000000D03*
X124500000Y-36000000D03*
X117000000Y-33500000D03*
%TO.N,/MUX_OUT*%
X119000000Y-43000000D03*
X116000000Y-23500000D03*
%TO.N,/MUX_S0*%
X114500000Y-26000000D03*
X121000000Y-55500000D03*
%TO.N,/MUX_S1*%
X113500000Y-25400000D03*
X119941011Y-57441011D03*
%TO.N,/MUX_S3*%
X125500000Y-59000000D03*
X127100000Y-30500000D03*
%TO.N,/MUX_S2*%
X114900000Y-25000000D03*
X124500000Y-57545000D03*
%TO.N,/USB_DP*%
X122000000Y-31000000D03*
X122000000Y-26500000D03*
%TO.N,/SPI_SDO*%
X128000000Y-64500000D03*
%TD*%
%TO.N,+3.3V*%
D21*
X111000000Y-27300000D02*
X115200000Y-27300000D01*
X126362500Y-69500000D02*
X120637500Y-69500000D01*
X115200000Y-27300000D02*
X115500000Y-27000000D01*
X121675000Y-66825000D02*
X121675000Y-66267590D01*
X120637500Y-67000000D02*
X121500000Y-67000000D01*
X131850000Y-56570000D02*
X131850000Y-62782410D01*
X126500000Y-25000000D02*
X126500000Y-31500000D01*
X119867590Y-67000000D02*
X120637500Y-67000000D01*
X126500000Y-31500000D02*
X129000000Y-31500000D01*
X128775000Y-36100000D02*
X127650000Y-37225000D01*
X119600000Y-67267590D02*
X119867590Y-67000000D01*
X119600000Y-69232410D02*
X119600000Y-67267590D01*
X136400000Y-36100000D02*
X136500000Y-36000000D01*
X129515000Y-45515000D02*
X131500000Y-47500000D01*
X129000000Y-31500000D02*
X129000000Y-35875000D01*
X121407410Y-66000000D02*
X120637500Y-66000000D01*
X127500000Y-69500000D02*
X127500000Y-68500000D01*
X127500000Y-68000000D02*
X127500000Y-67867590D01*
X131500000Y-53920000D02*
X133000000Y-55420000D01*
X128775000Y-36100000D02*
X136400000Y-36100000D01*
X127500000Y-67867590D02*
X127132410Y-67500000D01*
X127650000Y-37225000D02*
X127650000Y-45515000D01*
X126362500Y-69500000D02*
X127500000Y-69500000D01*
X121675000Y-66267590D02*
X121407410Y-66000000D01*
X121500000Y-67000000D02*
X121675000Y-66825000D01*
X133000000Y-55420000D02*
X131850000Y-56570000D01*
X120637500Y-69500000D02*
X119867590Y-69500000D01*
X131850000Y-62782410D02*
X127132410Y-67500000D01*
X119867590Y-69500000D02*
X119600000Y-69232410D01*
X127500000Y-68500000D02*
X127500000Y-68000000D01*
X115500000Y-27000000D02*
X115500000Y-25000000D01*
X131500000Y-47500000D02*
X131500000Y-53920000D01*
X127132410Y-67500000D02*
X126362500Y-67500000D01*
X115500000Y-25000000D02*
X126500000Y-25000000D01*
X127650000Y-45515000D02*
X129515000Y-45515000D01*
X129000000Y-35875000D02*
X128775000Y-36100000D01*
%TO.N,GND*%
X126362500Y-70500000D02*
X127132410Y-70500000D01*
X127400000Y-73767590D02*
X127400000Y-74232410D01*
X119600000Y-70767590D02*
X119867590Y-70500000D01*
X127132410Y-72500000D02*
X127400000Y-72767590D01*
X120637500Y-72500000D02*
X121407410Y-72500000D01*
X119867590Y-71500000D02*
X119600000Y-71232410D01*
X127400000Y-74232410D02*
X127132410Y-74500000D01*
X126362500Y-73500000D02*
X127132410Y-73500000D01*
X121675000Y-71767590D02*
X121407410Y-71500000D01*
X121675000Y-71767590D02*
X123332410Y-71767590D01*
X120637500Y-67500000D02*
X120637500Y-69000000D01*
X120000000Y-37050000D02*
X126500000Y-37050000D01*
X126362500Y-70000000D02*
X126362500Y-70500000D01*
X138400000Y-37100000D02*
X132770000Y-42730000D01*
X121500000Y-70500000D02*
X122000000Y-70000000D01*
X124002082Y-25665000D02*
X118497918Y-25665000D01*
X118000000Y-30000000D02*
X118160000Y-29840000D01*
X118000000Y-26162918D02*
X118000000Y-27330000D01*
X125578650Y-29555000D02*
X124055000Y-29555000D01*
X125592590Y-71500000D02*
X126362500Y-71500000D01*
X121565685Y-67500000D02*
X122500000Y-66565685D01*
X121675000Y-72767590D02*
X121407410Y-72500000D01*
X126362500Y-74500000D02*
X125592590Y-74500000D01*
X122000000Y-70000000D02*
X122000000Y-70100000D01*
X127650000Y-56945000D02*
X121285552Y-56945000D01*
X120637500Y-70500000D02*
X121500000Y-70500000D01*
X124055000Y-27775000D02*
X125578650Y-27775000D01*
X120637500Y-73500000D02*
X121407410Y-73500000D01*
X124500000Y-26162918D02*
X124002082Y-25665000D01*
X125000000Y-70100000D02*
X126262500Y-70100000D01*
X121407410Y-73500000D02*
X121675000Y-73232410D01*
X127400000Y-72767590D02*
X127400000Y-73232410D01*
X127132410Y-71500000D02*
X127400000Y-71767590D01*
X126362500Y-68000000D02*
X126362500Y-69000000D01*
X127132410Y-70500000D02*
X127400000Y-70767590D01*
X121285552Y-56945000D02*
X118745552Y-59485000D01*
X119867590Y-70500000D02*
X120637500Y-70500000D01*
X121675000Y-73232410D02*
X121675000Y-72767590D01*
X124500000Y-27330000D02*
X124500000Y-26162918D01*
X127132410Y-73500000D02*
X127400000Y-73767590D01*
X120637500Y-69000000D02*
X121900000Y-69000000D01*
X138400000Y-36000000D02*
X138400000Y-37100000D01*
X125592590Y-70500000D02*
X126362500Y-70500000D01*
X121900000Y-69000000D02*
X122000000Y-68900000D01*
X126362500Y-69000000D02*
X125100000Y-69000000D01*
X124000000Y-27830000D02*
X124500000Y-27330000D01*
X118497918Y-25665000D02*
X118000000Y-26162918D01*
X119600000Y-71232410D02*
X119600000Y-70767590D01*
X129000000Y-57500000D02*
X128205000Y-57500000D01*
X119600000Y-74232410D02*
X119600000Y-73767590D01*
X127400000Y-73232410D02*
X127132410Y-73500000D01*
X119867590Y-74500000D02*
X119600000Y-74232410D01*
X126362500Y-71500000D02*
X127132410Y-71500000D01*
X126362500Y-72500000D02*
X127132410Y-72500000D01*
X122500000Y-66565685D02*
X122500000Y-62500000D01*
X127400000Y-70767590D02*
X127400000Y-71232410D01*
X127400000Y-72232410D02*
X127132410Y-72500000D01*
X119450000Y-36500000D02*
X118000000Y-35050000D01*
X126899960Y-37050000D02*
X127050499Y-37200539D01*
X119867590Y-73500000D02*
X120637500Y-73500000D01*
X120687500Y-68900000D02*
X120637500Y-68850000D01*
X120637500Y-71500000D02*
X119867590Y-71500000D01*
X127400000Y-71232410D02*
X127132410Y-71500000D01*
X119450000Y-36500000D02*
X120000000Y-37050000D01*
X120637500Y-74500000D02*
X119867590Y-74500000D01*
X128205000Y-57500000D02*
X127650000Y-56945000D01*
X124000000Y-27830000D02*
X124055000Y-27775000D01*
X118000000Y-35050000D02*
X118000000Y-30000000D01*
X118745552Y-59485000D02*
X118350000Y-59485000D01*
X126500000Y-37050000D02*
X126899960Y-37050000D01*
X126100000Y-29033650D02*
X125578650Y-29555000D01*
X125578650Y-27775000D02*
X126100000Y-28296350D01*
X122500000Y-62500000D02*
X121500000Y-61500000D01*
X126100000Y-28296350D02*
X126100000Y-29033650D01*
X126262500Y-70100000D02*
X126362500Y-70000000D01*
X121675000Y-72232410D02*
X121675000Y-71767590D01*
X121407410Y-71500000D02*
X120637500Y-71500000D01*
X127132410Y-74500000D02*
X126362500Y-74500000D01*
X121407410Y-72500000D02*
X121675000Y-72232410D01*
X124055000Y-29555000D02*
X124000000Y-29500000D01*
X119600000Y-73767590D02*
X119867590Y-73500000D01*
X118160000Y-29840000D02*
X118500000Y-29500000D01*
X118000000Y-27330000D02*
X118500000Y-27830000D01*
X118500000Y-27830000D02*
X118500000Y-29500000D01*
X111000000Y-29840000D02*
X118160000Y-29840000D01*
X132770000Y-42730000D02*
X132770000Y-42920040D01*
X127400000Y-71767590D02*
X127400000Y-72232410D01*
X125100000Y-69000000D02*
X125000000Y-68900000D01*
X120637500Y-67500000D02*
X121565685Y-67500000D01*
X123332410Y-71767590D02*
X125000000Y-70100000D01*
%TO.N,/HALL_OUT_1*%
X128645552Y-48725000D02*
X129500000Y-47870552D01*
X131500000Y-44500000D02*
X134040000Y-47040000D01*
X119634448Y-55675000D02*
X126584448Y-48725000D01*
X129500000Y-47870552D02*
X129500000Y-47500000D01*
X118350000Y-55675000D02*
X119634448Y-55675000D01*
X126584448Y-48725000D02*
X128645552Y-48725000D01*
X134040000Y-47040000D02*
X134040000Y-47500000D01*
%TO.N,+5V*%
X126500000Y-36100000D02*
X122248529Y-31848529D01*
X122500000Y-29500000D02*
X122500000Y-27830000D01*
X122248529Y-31600000D02*
X122600000Y-31248529D01*
X120000000Y-30000000D02*
X121600000Y-31600000D01*
X122600000Y-30600000D02*
X122500000Y-30500000D01*
X122248529Y-31848529D02*
X122248529Y-31600000D01*
X121600000Y-31600000D02*
X122248529Y-31600000D01*
X121000000Y-32200000D02*
X121600000Y-31600000D01*
X126500000Y-36100000D02*
X124600000Y-36100000D01*
X121000000Y-33000000D02*
X121000000Y-32200000D01*
X124500000Y-38000000D02*
X126500000Y-38000000D01*
X117550000Y-34050000D02*
X117000000Y-33500000D01*
X124600000Y-36100000D02*
X124500000Y-36000000D01*
X120000000Y-29500000D02*
X120000000Y-30000000D01*
X122600000Y-31248529D02*
X122600000Y-30600000D01*
X122500000Y-30500000D02*
X122500000Y-29500000D01*
X120000000Y-27830000D02*
X120000000Y-29500000D01*
X117550000Y-36500000D02*
X117550000Y-34050000D01*
%TO.N,/MUX_OUT*%
X119000000Y-43000000D02*
X118350000Y-43650000D01*
X107450000Y-26287256D02*
X110237256Y-23500000D01*
X119200000Y-62200000D02*
X119200000Y-72332410D01*
X118500000Y-61500000D02*
X119200000Y-62200000D01*
X112500000Y-61500000D02*
X118500000Y-61500000D01*
X107450000Y-49150000D02*
X107450000Y-26287256D01*
X119867590Y-73000000D02*
X120637500Y-73000000D01*
X119200000Y-72332410D02*
X119867590Y-73000000D01*
X111000000Y-52700000D02*
X112500000Y-54200000D01*
X112500000Y-54200000D02*
X112500000Y-61500000D01*
X111000000Y-52700000D02*
X107450000Y-49150000D01*
X110237256Y-23500000D02*
X116000000Y-23500000D01*
X118350000Y-43650000D02*
X118350000Y-45515000D01*
%TO.N,/MUX_S0*%
X110000000Y-26000000D02*
X114500000Y-26000000D01*
X109050000Y-40590000D02*
X109050000Y-26950000D01*
X111000000Y-42540000D02*
X109050000Y-40590000D01*
X119555000Y-56945000D02*
X118350000Y-56945000D01*
X109050000Y-26950000D02*
X110000000Y-26000000D01*
X121000000Y-55500000D02*
X119555000Y-56945000D01*
%TO.N,/MUX_S1*%
X108650000Y-26784314D02*
X110034314Y-25400000D01*
X108650000Y-42730000D02*
X108650000Y-26784314D01*
X119941011Y-57441011D02*
X119167022Y-58215000D01*
X119167022Y-58215000D02*
X118350000Y-58215000D01*
X110034314Y-25400000D02*
X113500000Y-25400000D01*
X111000000Y-45080000D02*
X108650000Y-42730000D01*
%TO.N,/MUX_S3*%
X110202943Y-24100000D02*
X126165685Y-24100000D01*
X125500000Y-59000000D02*
X127165000Y-59000000D01*
X107850000Y-26452942D02*
X110202943Y-24100000D01*
X107850000Y-47010000D02*
X107850000Y-26452942D01*
X127165000Y-59000000D02*
X127650000Y-59485000D01*
X127100000Y-25034315D02*
X127100000Y-30500000D01*
X111000000Y-50160000D02*
X107850000Y-47010000D01*
X126165685Y-24100000D02*
X127100000Y-25034315D01*
%TO.N,/MUX_S2*%
X114400000Y-24500000D02*
X114900000Y-25000000D01*
X111000000Y-47620000D02*
X108250000Y-44870000D01*
X124500000Y-57545000D02*
X125455000Y-57545000D01*
X126125000Y-58215000D02*
X127650000Y-58215000D01*
X108250000Y-44870000D02*
X108250000Y-26618628D01*
X108250000Y-26618628D02*
X110368628Y-24500000D01*
X125455000Y-57545000D02*
X126125000Y-58215000D01*
X110368628Y-24500000D02*
X114400000Y-24500000D01*
%TO.N,/USB_DP*%
X122000000Y-31000000D02*
X121500000Y-30500000D01*
X121500000Y-30500000D02*
X121500000Y-29500000D01*
X121000000Y-27155000D02*
X121655000Y-26500000D01*
X121000000Y-27830000D02*
X121000000Y-27155000D01*
X121655000Y-26500000D02*
X122000000Y-26500000D01*
%TO.N,/USB_DN*%
X121000000Y-28955000D02*
X121000000Y-29500000D01*
X121500000Y-28455000D02*
X121000000Y-28955000D01*
X121500000Y-27830000D02*
X121500000Y-28455000D01*
%TO.N,/SPI_SDI*%
X111000000Y-34920000D02*
X112420000Y-34920000D01*
X120637500Y-61637500D02*
X120637500Y-65500000D01*
X113000000Y-35500000D02*
X113000000Y-61000000D01*
X113000000Y-61000000D02*
X120500000Y-61000000D01*
X120500000Y-61000000D02*
X120500000Y-61500000D01*
X120500000Y-61500000D02*
X120637500Y-61637500D01*
X112420000Y-34920000D02*
X113000000Y-35500000D01*
%TO.N,/SPI_SDO*%
X127132410Y-66500000D02*
X126362500Y-66500000D01*
X128000000Y-65632410D02*
X127132410Y-66500000D01*
X128000000Y-64500000D02*
X128000000Y-65632410D01*
%TO.N,/SPI_SCLK*%
X125325000Y-61175000D02*
X125325000Y-65732410D01*
X113500000Y-35434315D02*
X113500000Y-60500000D01*
X109850000Y-36310000D02*
X109850000Y-34443654D01*
X109850000Y-34443654D02*
X110523654Y-33770000D01*
X111835685Y-33770000D02*
X113500000Y-35434315D01*
X113500000Y-60500000D02*
X126000000Y-60500000D01*
X110523654Y-33770000D02*
X111835685Y-33770000D01*
X126000000Y-60500000D02*
X125325000Y-61175000D01*
X111000000Y-37460000D02*
X109850000Y-36310000D01*
X125592590Y-66000000D02*
X126362500Y-66000000D01*
X125325000Y-65732410D02*
X125592590Y-66000000D01*
%TO.N,/SPI_CS1*%
X109450000Y-32303654D02*
X110523654Y-31230000D01*
X110523654Y-31230000D02*
X111476346Y-31230000D01*
X126165685Y-60100000D02*
X126512500Y-60446815D01*
X116750000Y-59750000D02*
X117100000Y-60100000D01*
X109450000Y-38450000D02*
X109450000Y-32303654D01*
X111476346Y-31230000D02*
X116750000Y-36503654D01*
X117100000Y-60100000D02*
X126165685Y-60100000D01*
X116750000Y-36503654D02*
X116750000Y-59750000D01*
X126512500Y-60446815D02*
X126512500Y-65350000D01*
X111000000Y-40000000D02*
X109450000Y-38450000D01*
X126512500Y-65350000D02*
X126362500Y-65500000D01*
%TD*%
M02*
