M48
; DRILL file KiCad 10.0.0 date 2026-04-12T03:08:23
; FORMAT={-:-/ absolute / metric / decimal}
; #@! TF.CreationDate,2026-04-12T03:08:23-03:00
; #@! TF.GenerationSoftware,Kicad,Pcbnew,10.0.0
; #@! TF.FileFunction,Plated,1,4,PTH
FMAT,2
METRIC
; #@! TA.AperFunction,Plated,PTH,ViaDrill
T1C0.300
; #@! TA.AperFunction,Plated,PTH,ComponentDrill
T2C0.700
; #@! TA.AperFunction,Plated,PTH,ComponentDrill
T3C0.750
; #@! TA.AperFunction,Plated,PTH,ComponentDrill
T4C1.000
%
G90
G05
T1
X113.5Y-25.4
X114.5Y-26.0
X114.9Y-25.0
X116.0Y-23.5
X117.0Y-33.5
X119.0Y-43.0
X119.941Y-57.441
X121.0Y-33.0
X121.0Y-55.5
X121.5Y-61.5
X122.0Y-26.5
X122.0Y-31.0
X122.0Y-68.9
X122.0Y-70.1
X124.5Y-36.0
X124.5Y-38.0
X124.5Y-57.545
X125.0Y-68.9
X125.0Y-70.1
X125.5Y-59.0
X127.05Y-37.201
X127.1Y-30.5
X128.0Y-64.5
X129.0Y-57.5
X129.5Y-47.5
X131.5Y-44.5
X132.77Y-42.92
T2
X118.85Y-26.515
X118.85Y-30.815
X123.65Y-26.515
X123.65Y-30.815
T3
X131.5Y-47.5
X132.77Y-47.5
X134.04Y-47.5
T4
X111.0Y-27.3
X111.0Y-29.84
X111.0Y-32.38
X111.0Y-34.92
X111.0Y-37.46
X111.0Y-40.0
X111.0Y-42.54
X111.0Y-45.08
X111.0Y-47.62
X111.0Y-50.16
X111.0Y-52.7
X111.0Y-55.24
X111.0Y-57.78
X111.0Y-60.32
X111.0Y-62.86
X111.0Y-65.4
X111.0Y-67.94
X111.0Y-70.48
X111.0Y-73.02
X111.0Y-75.56
X133.0Y-55.42
X133.0Y-57.96
X133.0Y-60.5
X133.0Y-63.04
M30
